<svg width="15" height="15" viewBox="0 0 15 15" fill="none" xmlns="http://www.w3.org/2000/svg">
<path d="M13.7482 2.43513L11.855 0.548477L7.92331 4.47367L9.44752 6.04781C9.19208 6.50125 8.63784 7.3699 7.69327 8.31447C6.74859 9.25918 5.8736 9.81971 5.41581 10.0792L3.87255 8.55562L0.00219727 12.4029L1.88504 14.2983C2.60479 15.0181 3.69992 15.2046 4.61014 14.7625C5.99915 14.0879 8.0954 12.8431 10.1942 10.7443C12.2931 8.64552 13.5378 6.54924 14.2124 5.16023C14.3723 4.83109 14.4499 4.47787 14.4499 4.12692C14.4499 3.5072 14.2077 2.89464 13.7482 2.43513ZM13.1977 4.66732C12.5609 5.97846 11.3845 7.95865 9.39655 9.94658C7.40862 11.9345 5.42842 13.1109 4.11729 13.7477C3.63929 13.9799 3.06281 13.8806 2.68414 13.5019L1.59739 12.4079L3.87537 10.1436L5.19009 11.4415L5.54183 11.2849C5.59899 11.2595 6.95941 10.6438 8.4911 9.11215C10.0238 7.57947 10.6266 6.23054 10.6515 6.17386L10.804 5.82683L9.50671 4.48705L11.8558 2.14178L12.9511 3.23327C13.3306 3.6133 13.4298 4.18952 13.1977 4.66732Z" fill="#6E9C9F"/>
</svg>
