<svg width="28" height="22" viewBox="0 0 28 22" fill="none" xmlns="http://www.w3.org/2000/svg">
<path d="M26.0594 21.7965C25.7234 21.7965 25.3874 21.6678 25.1301 21.4132L7.49802 3.77846C6.47165 2.75208 4.81002 2.75208 3.78365 3.77846C3.29015 4.27458 3.01453 4.93345 3.01453 5.63433C3.01453 6.33521 3.28752 6.99408 3.78365 7.49021L5.63952 9.34608C6.1514 9.85795 6.1514 10.6901 5.63952 11.202C5.12765 11.7138 4.29552 11.7138 3.78365 11.202L1.92778 9.34608C0.935526 8.35383 0.389526 7.03608 0.389526 5.63433C0.389526 4.23258 0.935526 2.91483 1.92778 1.92258C3.90965 -0.0592952 7.36677 -0.0645453 9.3539 1.92258L26.986 19.5573C27.4979 20.0692 27.4979 20.9013 26.986 21.4132C26.7288 21.6705 26.3954 21.7965 26.0594 21.7965Z" fill="black"/>
</svg>
