<svg width="24" height="19" viewBox="0 0 24 19" fill="none" xmlns="http://www.w3.org/2000/svg">
<path d="M22.6296 18.2289C22.2936 18.2289 21.9576 18.1002 21.7004 17.8456L7.77737 3.92261C6.75099 2.89624 5.09199 2.89624 4.06562 3.92261C3.04187 4.94636 3.04187 6.61061 4.06562 7.63436C4.57749 8.14624 4.57749 8.97836 4.06562 9.49024C3.55374 10.0021 2.72162 10.0021 2.20974 9.49024C0.164868 7.44536 0.164868 4.11161 2.20974 2.06674C4.25462 0.0218623 7.58837 0.0218623 9.63324 2.06674L23.5562 15.9897C24.0681 16.5016 24.0681 17.3337 23.5562 17.8456C23.3016 18.1002 22.9656 18.2289 22.6296 18.2289Z" fill="black"/>
</svg>
