<svg width="26" height="28" viewBox="0 0 26 28" fill="none" xmlns="http://www.w3.org/2000/svg">
<path d="M20.7774 27.7903C20.4414 27.7903 20.1054 27.6617 19.8481 27.407L2.21598 9.77228C0.168484 7.72478 0.168484 4.39366 2.21598 2.34616C4.26873 0.298657 7.59723 0.303907 9.63949 2.34616L25.4184 18.125C25.9302 18.6369 25.9302 19.469 25.4184 19.9809C24.9065 20.4928 24.0744 20.4928 23.5625 19.9809L7.78361 4.20203C6.76511 3.18353 5.10086 3.18091 4.07186 4.20203C3.57836 4.69816 3.30273 5.35703 3.30273 6.05791C3.30273 6.76141 3.57573 7.42028 4.07186 7.91641L21.7066 25.5485C22.2185 26.0604 22.2185 26.8925 21.7066 27.4044C21.4494 27.6617 21.1134 27.7903 20.7774 27.7903Z" fill="black"/>
</svg>
